<svg width="34" height="31" viewBox="0 0 34 31" fill="none" xmlns="http://www.w3.org/2000/svg">
<path d="M7.43754 5.16667H26.5625C27.7386 5.1666 28.8701 5.57684 29.7249 6.31324C30.5797 7.04965 31.093 8.05638 31.1596 9.12692L31.1667 9.36458V21.6354C31.1668 22.7077 30.7168 23.7393 29.9092 24.5187C29.1015 25.2981 27.9974 25.7662 26.8232 25.8269L26.5625 25.8333H7.43754C6.26151 25.8334 5.13003 25.4232 4.27521 24.6868C3.42039 23.9504 2.90704 22.9436 2.84046 21.8731L2.83337 21.6354V9.36458C2.8333 8.29232 3.28324 7.26068 4.09091 6.48129C4.89858 5.70189 6.00273 5.23383 7.17687 5.17313L7.43754 5.16667H26.5625H7.43754ZM29.0417 12.1068L17.4959 17.648C17.3655 17.7108 17.2222 17.7482 17.0752 17.7578C16.9281 17.7673 16.7804 17.7489 16.6416 17.7036L16.5056 17.6493L4.95837 12.1081V21.6354C4.9584 22.2027 5.19237 22.7492 5.61384 23.1665C6.03531 23.5838 6.61347 23.8414 7.23354 23.8881L7.43754 23.8958H26.5625C27.185 23.8958 27.7846 23.6823 28.2423 23.2977C28.7 22.9132 28.9823 22.3857 29.0332 21.8201L29.0417 21.6354V12.1068ZM26.5625 7.10417H7.43754C6.81536 7.10419 6.21592 7.31751 5.75824 7.7018C5.30055 8.08608 5.01807 8.61322 4.96687 9.17858L4.95837 9.36458V9.91871L17 15.6963L29.0417 9.91742V9.36458C29.0417 8.79709 28.8075 8.25038 28.3857 7.83304C27.964 7.41571 27.3855 7.15829 26.7651 7.11192L26.5625 7.10417Z" fill="white"/>
</svg>
