<svg width="32" height="31" viewBox="0 0 32 31" fill="none" xmlns="http://www.w3.org/2000/svg">
<path d="M24.6488 30.5178C24.3499 30.517 24.0519 30.4852 23.76 30.4231C18.2014 29.3091 13.0805 26.6974 8.98662 22.8883C4.98011 19.0709 2.20137 14.2106 0.986622 8.89528C0.843388 8.23283 0.878543 7.54583 1.08871 6.90035C1.29887 6.25488 1.67697 5.67267 2.18662 5.20972L5.74218 1.89444C5.92378 1.72807 6.13956 1.60066 6.37544 1.52053C6.61131 1.44041 6.86197 1.40937 7.11107 1.42944C7.36935 1.45555 7.61859 1.53615 7.84126 1.66558C8.06394 1.79501 8.25464 1.97012 8.39996 2.17861L12.8444 8.54222C13.0111 8.78914 13.0915 9.08136 13.0739 9.37589C13.0563 9.67042 12.9416 9.9517 12.7466 10.1783L10.5155 12.7617C11.4041 14.6668 12.6625 16.3887 14.2222 17.8336C15.7718 19.3309 17.6034 20.5265 19.6177 21.3556L22.3822 19.2286C22.6144 19.0508 22.8969 18.9458 23.1922 18.9273C23.4875 18.9088 23.7817 18.9779 24.0355 19.1253L30.7466 23.3275C30.9769 23.4607 31.1731 23.6427 31.3205 23.8598C31.4679 24.0769 31.5627 24.3235 31.5978 24.5811C31.6328 24.8387 31.6073 25.1007 31.523 25.3474C31.4387 25.5941 31.2979 25.8191 31.1111 26.0056L27.6444 29.3294C27.2506 29.7091 26.7832 30.0095 26.2691 30.2134C25.755 30.4174 25.2044 30.5208 24.6488 30.5178ZM6.96884 3.13444L3.41329 6.44972C3.12658 6.70853 2.91434 7.03517 2.79745 7.39753C2.68056 7.75989 2.66305 8.14548 2.74662 8.51639C3.87615 13.5041 6.47259 18.0681 10.2222 21.6569C14.0748 25.2405 18.8938 27.6971 24.1244 28.7439C24.5203 28.8241 24.9306 28.8078 25.3184 28.6966C25.7063 28.5854 26.0595 28.3827 26.3466 28.1067L29.8133 24.7828L23.3333 20.7269L20.3644 23.0175C20.2507 23.1046 20.1168 23.1635 19.9743 23.1891C19.8317 23.2146 19.6849 23.2059 19.5466 23.1639C17.0815 22.284 14.8475 20.8873 13.0044 19.0736C11.098 17.349 9.61829 15.2296 8.67551 12.8736C8.63563 12.731 8.6343 12.5808 8.67166 12.4375C8.70903 12.2943 8.78382 12.1627 8.88884 12.0556L11.2888 9.27417L6.96884 3.13444Z" fill="white"/>
</svg>
