<svg width="36" height="35" viewBox="0 0 36 35" fill="none" xmlns="http://www.w3.org/2000/svg">
<ellipse cx="18" cy="17.5" rx="18" ry="17.5" fill="#FF583E"/>
<path d="M25.1442 8C25.7297 8 26.1713 8.61218 25.9351 9.75084L23.0692 25.8512C22.8689 26.996 22.2886 27.2715 21.4873 26.7389L14.6514 20.7211C14.6249 20.6985 14.6033 20.6686 14.5884 20.634C14.5735 20.5994 14.5657 20.5611 14.5657 20.5222C14.5657 20.4833 14.5735 20.445 14.5884 20.4104C14.6033 20.3758 14.6249 20.3459 14.6514 20.3232L22.5454 11.8261C22.9049 11.4466 21.4683 11.2629 20.9958 11.6057L11.0885 19.056C11.0585 19.0794 12.0244 19.0943 11.9888 19.0996C11.9532 19.1049 11.917 19.1004 11.8831 19.0866L7.67674 17.5011C6.74199 17.1766 6.74199 16.4114 7.88731 15.8665L24.7179 8.12856C24.8513 8.05223 24.9963 8.00852 25.1442 8Z" stroke="white" stroke-width="2" stroke-linecap="round" stroke-linejoin="round"/>
</svg>
