<svg width="36" height="35" viewBox="0 0 36 35" fill="none" xmlns="http://www.w3.org/2000/svg">
<ellipse cx="18" cy="17.5" rx="18" ry="17.5" fill="#FF583E"/>
<path d="M17.7425 12.5133C16.6951 12.5133 15.6712 12.834 14.8003 13.4346C13.9294 14.0353 13.2507 14.8891 12.8498 15.888C12.449 16.8869 12.3441 17.9861 12.5485 19.0465C12.7528 20.1069 13.2572 21.081 13.9978 21.8455C14.7385 22.6101 15.6821 23.1307 16.7094 23.3416C17.7367 23.5526 18.8015 23.4443 19.7692 23.0306C20.7369 22.6168 21.564 21.9161 22.1459 21.0171C22.7278 20.1181 23.0384 19.0612 23.0384 17.98C23.0401 17.2616 22.9043 16.55 22.6387 15.8859C22.3732 15.2219 21.9832 14.6185 21.4911 14.1106C20.999 13.6026 20.4145 13.2 19.7712 12.9259C19.1279 12.6518 18.4385 12.5116 17.7425 12.5133ZM17.7425 21.54C17.0604 21.54 16.3937 21.3312 15.8265 20.94C15.2594 20.5489 14.8173 19.9929 14.5563 19.3424C14.2953 18.6919 14.227 17.9761 14.3601 17.2855C14.4931 16.5949 14.8216 15.9606 15.3039 15.4627C15.7862 14.9648 16.4007 14.6258 17.0697 14.4884C17.7387 14.3511 18.4321 14.4216 19.0623 14.691C19.6925 14.9604 20.2311 15.4167 20.6101 16.0022C20.989 16.5876 21.1913 17.2759 21.1913 17.98C21.1913 18.9242 20.8279 19.8297 20.1812 20.4973C19.5344 21.1649 18.6572 21.54 17.7425 21.54ZM24.498 12.2867C24.498 12.5504 24.4222 12.8082 24.2803 13.0274C24.1383 13.2467 23.9366 13.4176 23.7006 13.5185C23.4646 13.6194 23.2049 13.6458 22.9543 13.5944C22.7037 13.5429 22.4736 13.416 22.293 13.2295C22.1123 13.043 21.9893 12.8054 21.9395 12.5468C21.8896 12.2882 21.9152 12.0201 22.013 11.7764C22.1107 11.5328 22.2763 11.3246 22.4887 11.1781C22.7011 11.0315 22.9508 10.9533 23.2063 10.9533C23.5489 10.9533 23.8774 11.0938 24.1196 11.3439C24.3619 11.5939 24.498 11.9331 24.498 12.2867ZM27.9984 13.62C28.036 11.9624 27.437 10.3568 26.3321 9.15334C25.1725 7.99826 23.6163 7.36529 22.005 7.39334C20.3259 7.31334 15.1592 7.31334 13.48 7.39334C11.8748 7.35746 10.3203 7.97534 9.15296 9.11334C8.04812 10.3168 7.44914 11.9224 7.48671 13.58C7.40921 15.3133 7.40921 20.6467 7.48671 22.38C7.44914 24.0376 8.04812 25.6432 9.15296 26.8467C10.3203 27.9847 11.8748 28.6026 13.48 28.5667C15.185 28.6733 20.3 28.6733 22.005 28.5667C23.6108 28.6055 25.1663 27.9872 26.3321 26.8467C27.437 25.6432 28.036 24.0376 27.9984 22.38C28.0759 20.6467 28.0759 15.3133 27.9984 13.58V13.62ZM25.8025 24.2867C25.6272 24.7453 25.3624 25.1618 25.0247 25.5104C24.687 25.859 24.2835 26.1323 23.8392 26.3133C21.834 26.7318 19.7841 26.8753 17.7425 26.74C15.7053 26.8755 13.6596 26.732 11.6588 26.3133C11.2145 26.1323 10.811 25.859 10.4733 25.5104C10.1356 25.1618 9.87084 24.7453 9.69546 24.2867C9.15296 22.8733 9.26921 19.54 9.26921 17.9933C9.26921 16.4467 9.15296 13.1 9.69546 11.7C9.86589 11.2369 10.1288 10.816 10.467 10.4645C10.8052 10.1131 11.2113 9.83897 11.6588 9.66001C13.6596 9.24131 15.7053 9.09785 17.7425 9.23334C19.7841 9.09807 21.834 9.24153 23.8392 9.66001C24.2835 9.84104 24.687 10.1143 25.0247 10.463C25.3624 10.8116 25.6272 11.2281 25.8025 11.6867C26.345 13.1 26.2159 16.4333 26.2159 17.98C26.2159 19.5267 26.345 22.8733 25.8025 24.2733V24.2867Z" fill="white"/>
</svg>
