<svg width="21" height="18" viewBox="0 0 21 18" fill="none" xmlns="http://www.w3.org/2000/svg">
<path d="M9.84375 12.9375V13.5C9.84375 13.6492 9.77461 13.7923 9.65154 13.8977C9.52847 14.0032 9.36155 14.0625 9.1875 14.0625H7.875V14.625C7.875 14.9234 7.73672 15.2095 7.49058 15.4205C7.24444 15.6315 6.9106 15.75 6.5625 15.75H3.9375C3.5894 15.75 3.25556 15.6315 3.00942 15.4205C2.76328 15.2095 2.625 14.9234 2.625 14.625V13.1704C2.62507 12.872 2.7634 12.5859 3.00956 12.375L8.08894 8.02125C7.77749 7.11477 7.80687 6.14725 8.17292 5.25588C8.53897 4.36451 9.22311 3.59454 10.1283 3.05514C11.0335 2.51573 12.1139 2.23428 13.2162 2.25068C14.3185 2.26708 15.3868 2.5805 16.2697 3.14651C17.1525 3.71252 17.805 4.50238 18.1348 5.4041C18.4645 6.30582 18.4547 7.27363 18.1067 8.1703C17.7588 9.06697 17.0903 9.847 16.1961 10.3998C15.302 10.9525 14.2275 11.25 13.125 11.25H11.8112V12.375C11.8112 12.5242 11.742 12.6673 11.619 12.7727C11.4959 12.8782 11.329 12.9375 11.1549 12.9375H9.84244H9.84375ZM14.4375 6.75C14.7856 6.75 15.1194 6.63147 15.3656 6.4205C15.6117 6.20952 15.75 5.92337 15.75 5.625C15.75 5.32663 15.6117 5.04048 15.3656 4.82951C15.1194 4.61853 14.7856 4.5 14.4375 4.5C14.0894 4.5 13.7556 4.61853 13.5094 4.82951C13.2633 5.04048 13.125 5.32663 13.125 5.625C13.125 5.92337 13.2633 6.20952 13.5094 6.4205C13.7556 6.63147 14.0894 6.75 14.4375 6.75V6.75Z" fill="#1D3130"/>
</svg>
